<?xml version="1.0" encoding="utf-8"?>
<svg shape-rendering="geometricPrecision" text-rendering="geometricPrecision" image-rendering="optimizeQuality" fill-rule="evenodd" clip-rule="evenodd" viewBox="0 0 475 512.06" xmlns="http://www.w3.org/2000/svg">
  <g transform="matrix(1.676036, 0, 0, 1.501101, 161.128357, 21.494316)" style="">
    <g>
      <g>
        <path fill-rule="nonzero" d="M 55.942 133.526 L 55.942 168.387 L 156.573 168.387 L 156.573 227.996 L 139.049 227.996 L 139.049 187.952 L 55.942 187.952 L 35.877 187.952 L -47.916 187.952 L -47.916 227.996 L -65.439 227.996 L -65.439 168.387 L 35.877 168.387 L 35.877 133.526 L 55.942 133.526 Z M 136.168 296.553 L 142.617 315.452 L 145.857 305.146 L 144.264 303.208 C 143.071 301.263 143.482 299.051 145.696 298.651 C 146.442 298.518 147.283 298.598 148.094 298.598 C 148.954 298.598 149.914 298.511 150.732 298.711 C 152.784 299.217 152.999 301.443 151.973 303.208 L 150.386 305.146 L 153.625 315.452 L 159.455 296.553 C 163.661 300.776 174.985 301.629 179.621 304.514 C 186.041 308.531 185.868 319.622 187.27 326.804 L 108.352 326.804 C 109.748 319.689 109.605 308.464 116.001 304.514 C 121.699 300.976 131.502 301.243 136.168 296.553 Z M 134.98 283.882 C 134.395 283.895 133.918 283.809 133.399 283.489 C 132.707 283.063 132.224 282.33 131.89 281.504 C 131.197 279.765 130.643 275.188 132.397 273.876 L 132.069 273.643 L 132.033 273.137 C 131.967 272.217 131.949 271.105 131.931 269.932 C 131.866 265.635 131.788 260.426 128.608 259.38 L 127.242 258.934 L 128.143 257.721 C 130.714 254.27 133.393 251.253 136.102 248.934 C 139.163 246.31 142.277 244.564 145.32 244.065 C 148.452 243.545 151.489 244.324 154.288 246.789 C 155.117 247.515 155.916 248.395 156.692 249.414 C 159.681 249.727 162.128 251.479 163.876 253.977 C 164.914 255.47 165.707 257.235 166.209 259.107 C 166.71 260.979 166.931 262.964 166.835 264.923 C 166.668 268.427 165.493 271.851 163.112 274.349 C 163.53 274.362 163.923 274.469 164.27 274.669 C 165.6 275.442 165.642 277.12 165.29 278.519 C 164.95 279.698 164.514 281.057 164.096 282.203 C 163.595 283.742 162.861 284.035 161.447 283.869 C 158.261 299.424 139.008 299.957 134.98 283.882 Z M -68.321 296.553 L -61.877 315.452 L -58.637 305.146 L -60.224 303.208 C -61.418 301.263 -61.006 299.051 -58.793 298.651 C -58.047 298.518 -57.211 298.598 -56.394 298.598 C -55.535 298.598 -54.574 298.511 -53.763 298.711 C -51.71 299.217 -51.496 301.443 -52.516 303.208 L -54.109 305.146 L -50.863 315.452 L -45.034 296.553 C -40.827 300.776 -29.503 301.629 -24.873 304.514 C -18.447 308.531 -18.626 319.622 -17.218 326.804 L -96.137 326.804 C -94.746 319.689 -94.89 308.464 -88.488 304.514 C -82.79 300.976 -72.987 301.243 -68.321 296.553 Z M -69.514 283.882 C -70.093 283.895 -70.57 283.809 -71.089 283.489 C -71.781 283.063 -72.271 282.33 -72.599 281.504 C -73.297 279.765 -73.846 275.188 -72.098 273.876 L -72.42 273.643 L -72.462 273.137 C -72.527 272.217 -72.545 271.105 -72.557 269.932 C -72.623 265.635 -72.706 260.426 -75.886 259.38 L -77.247 258.934 L -76.352 257.721 C -73.78 254.27 -71.095 251.253 -68.393 248.934 C -65.326 246.31 -62.211 244.564 -59.168 244.065 C -56.036 243.545 -53.005 244.324 -50.201 246.789 C -49.371 247.515 -48.572 248.395 -47.796 249.414 C -44.807 249.727 -42.361 251.479 -40.619 253.977 C -39.581 255.47 -38.787 257.235 -38.28 259.107 C -37.777 260.992 -37.565 262.958 -37.653 264.923 C -37.826 268.427 -39.002 271.851 -41.376 274.349 C -40.959 274.362 -40.571 274.469 -40.219 274.669 C -38.894 275.442 -38.853 277.12 -39.199 278.519 C -39.545 279.698 -39.98 281.057 -40.392 282.203 C -40.893 283.742 -41.627 284.035 -43.047 283.869 C -46.233 299.424 -65.487 299.957 -69.514 283.882 Z" style="fill: rgb(255, 255, 255);"/>
        <path class="st0" d="M 47.48 108.43 C 49.69 108.43 51.48 110.22 51.48 112.43 C 51.48 114.64 49.69 116.43 47.48 116.43 C 45.27 116.43 43.48 114.64 43.48 112.43 C 43.48 110.22 45.27 108.43 47.48 108.43 Z M 21.64 67.48 C 21.58 67.36 21.51 67.25 21.43 67.14 C 21.08 66.57 20.73 66 20.38 65.35 C 20.03 64.65 19.68 63.99 19.37 63.38 C 19.06 62.72 18.76 62.02 18.5 61.32 C 18.28 60.71 18.02 60.01 17.76 59.18 C 17.37 58 16.27 57.26 15.09 57.26 L 7.52 57.26 C 7.26 57.26 7 57.22 6.82 57.13 C 6.65 57.04 6.43 56.91 6.3 56.74 C 6.13 56.56 5.99 56.39 5.91 56.22 C 5.82 56.05 5.78 55.78 5.78 55.52 L 5.78 45.98 C 5.78 45.72 5.82 45.5 5.87 45.32 C 5.96 45.14 6.09 44.93 6.31 44.71 C 6.48 44.54 6.66 44.4 6.83 44.36 C 7.01 44.27 7.27 44.23 7.53 44.23 L 14.48 44.23 C 15.88 44.23 17.02 43.22 17.28 41.91 C 17.45 41.17 17.63 40.47 17.8 39.85 C 18.02 39.15 18.24 38.49 18.5 37.79 C 18.76 37.13 19.02 36.43 19.37 35.78 C 19.68 35.08 20.03 34.47 20.33 33.86 C 20.94 32.72 20.72 31.41 19.85 30.54 L 14.43 25.07 C 14.39 25.03 14.39 25.03 14.34 25.03 C 14.17 24.86 14.03 24.68 13.95 24.51 C 13.86 24.34 13.86 24.16 13.86 23.9 C 13.86 23.64 13.9 23.42 13.99 23.24 C 14.08 23.02 14.21 22.85 14.43 22.63 L 21.12 15.98 C 21.34 15.76 21.51 15.63 21.73 15.54 C 21.91 15.45 22.12 15.41 22.39 15.41 C 22.65 15.41 22.87 15.45 23.05 15.54 C 23.23 15.63 23.44 15.76 23.62 15.93 L 23.66 15.93 L 28.6 20.87 C 29.56 21.83 31.09 21.96 32.19 21.18 C 32.76 20.83 33.33 20.48 33.98 20.13 C 34.68 19.78 35.34 19.43 35.95 19.12 C 36.61 18.81 37.31 18.51 38.01 18.25 C 38.62 18.03 39.32 17.77 40.15 17.51 C 41.33 17.12 42.07 16.02 42.07 14.84 L 42.07 7.26 C 42.07 7 42.11 6.74 42.2 6.56 C 42.29 6.39 42.42 6.21 42.55 6.04 C 42.73 5.87 42.9 5.73 43.07 5.69 C 43.24 5.6 43.51 5.56 43.77 5.56 L 50.49 5.56 L 50.57 5.56 L 51.26 5.56 C 51.52 5.56 51.78 5.6 51.96 5.69 C 52.13 5.73 52.31 5.87 52.48 6.04 C 52.61 6.21 52.74 6.39 52.83 6.56 C 52.92 6.73 52.96 7 52.96 7.26 L 52.96 14.83 C 52.96 16.01 53.7 17.1 54.88 17.5 C 55.71 17.76 56.41 18.02 57.02 18.24 C 57.72 18.5 58.42 18.81 59.08 19.11 C 59.69 19.42 60.35 19.77 61.05 20.12 C 61.71 20.47 62.27 20.82 62.84 21.17 C 63.93 21.96 65.46 21.83 66.43 20.86 L 71.37 15.92 L 71.41 15.92 C 71.58 15.75 71.8 15.61 71.98 15.53 C 72.15 15.44 72.37 15.4 72.64 15.4 C 72.9 15.4 73.12 15.44 73.3 15.53 C 73.52 15.62 73.69 15.75 73.91 15.97 L 80.6 22.62 C 80.82 22.84 80.95 23.01 81.04 23.23 C 81.13 23.4 81.17 23.62 81.17 23.89 C 81.17 24.15 81.17 24.33 81.08 24.5 C 80.99 24.68 80.86 24.85 80.69 25.02 C 80.65 25.02 80.65 25.02 80.6 25.06 L 75.18 30.53 C 74.31 31.4 74.09 32.72 74.7 33.85 C 75.01 34.46 75.36 35.07 75.66 35.77 C 76.01 36.43 76.27 37.13 76.53 37.78 C 76.79 38.48 77.01 39.14 77.23 39.84 C 77.4 40.45 77.58 41.15 77.75 41.9 C 78.01 43.21 79.15 44.22 80.55 44.22 L 87.5 44.22 C 87.76 44.22 88.02 44.26 88.2 44.35 C 88.37 44.39 88.55 44.52 88.72 44.7 C 88.94 44.92 89.07 45.14 89.16 45.31 C 89.2 45.48 89.25 45.7 89.25 45.97 L 89.25 55.51 C 89.25 55.77 89.21 56.03 89.12 56.21 C 89.03 56.39 88.9 56.56 88.73 56.73 C 88.6 56.9 88.38 57.04 88.21 57.12 C 88.03 57.21 87.77 57.25 87.51 57.25 L 79.94 57.25 C 78.76 57.25 77.67 57.99 77.27 59.17 C 77.01 60 76.75 60.7 76.53 61.31 C 76.27 62.01 75.96 62.71 75.66 63.37 C 75.35 63.98 75 64.64 74.65 65.34 C 74.3 66 73.95 66.57 73.6 67.13 C 73.52 67.24 73.45 67.35 73.39 67.47 L 80.01 67.47 C 80.29 66.91 80.57 66.31 80.86 65.69 C 81.21 64.9 81.56 64.12 81.87 63.33 C 81.91 63.2 82 63.02 82.05 62.89 L 87.65 62.89 C 88.66 62.89 89.62 62.72 90.49 62.37 C 91.36 62.02 92.2 61.45 92.9 60.75 C 93.6 60.05 94.17 59.26 94.52 58.34 C 94.87 57.42 95.04 56.5 95.04 55.5 L 95.04 45.97 C 95.04 45.01 94.82 44.05 94.47 43.17 C 94.12 42.3 93.6 41.51 92.9 40.81 L 92.86 40.77 C 92.16 40.07 91.37 39.5 90.5 39.15 C 89.63 38.76 88.66 38.58 87.66 38.58 L 82.89 38.58 C 82.89 38.45 82.85 38.36 82.8 38.23 C 82.54 37.4 82.28 36.57 81.97 35.78 C 81.62 34.95 81.31 34.16 80.96 33.42 C 80.92 33.33 80.83 33.2 80.79 33.07 L 84.73 29.09 C 85.47 28.43 86 27.65 86.39 26.77 C 86.74 25.9 86.96 24.93 86.96 23.93 C 86.96 22.92 86.79 22.01 86.39 21.09 C 86 20.22 85.47 19.43 84.77 18.73 L 84.73 18.73 L 78.04 12.08 C 77.34 11.38 76.55 10.86 75.63 10.46 C 74.71 10.07 73.79 9.89 72.79 9.89 C 71.83 9.89 70.87 10.06 69.95 10.46 C 69.03 10.81 68.24 11.38 67.54 12.08 L 64.13 15.45 L 63.87 15.32 C 63.17 14.93 62.38 14.58 61.55 14.18 C 60.76 13.83 59.98 13.48 59.19 13.17 C 59.06 13.13 58.88 13.04 58.75 12.99 L 58.75 7.39 C 58.75 6.38 58.58 5.42 58.23 4.55 C 57.88 3.67 57.31 2.84 56.61 2.14 C 55.87 1.44 55.08 0.87 54.2 0.52 C 53.29 0.17 52.37 0 51.36 0 L 47.91 0 L 47.14 0 L 43.69 0 C 42.68 0 41.77 0.17 40.85 0.52 C 39.98 0.87 39.19 1.44 38.44 2.14 C 37.74 2.84 37.17 3.67 36.82 4.55 C 36.47 5.42 36.3 6.39 36.3 7.39 L 36.3 12.99 C 36.17 13.03 35.99 13.12 35.86 13.17 C 35.07 13.48 34.29 13.83 33.5 14.18 C 32.67 14.57 31.88 14.92 31.18 15.32 L 30.92 15.45 L 27.51 12.08 C 26.81 11.38 26.02 10.81 25.1 10.46 C 24.18 10.07 23.22 9.89 22.26 9.89 C 21.25 9.89 20.34 10.06 19.42 10.46 C 18.5 10.85 17.71 11.38 17.01 12.08 L 10.32 18.73 L 10.28 18.73 C 9.58 19.43 9.06 20.22 8.66 21.09 C 8.27 22 8.09 22.92 8.09 23.92 C 8.09 24.93 8.31 25.89 8.66 26.76 C 9.05 27.63 9.58 28.42 10.32 29.08 L 14.26 33.06 C 14.22 33.19 14.13 33.32 14.09 33.41 C 13.74 34.15 13.43 34.94 13.08 35.77 C 12.77 36.56 12.51 37.39 12.25 38.22 C 12.21 38.35 12.16 38.44 12.16 38.57 L 7.39 38.57 C 6.38 38.57 5.42 38.75 4.55 39.14 C 3.68 39.49 2.89 40.06 2.19 40.76 L 2.15 40.8 C 1.45 41.5 0.93 42.29 0.58 43.16 C 0.22 44.04 0 45.01 0 45.97 L 0 55.5 C 0 56.51 0.17 57.42 0.52 58.34 C 0.87 59.26 1.44 60.05 2.14 60.75 C 2.84 61.45 3.67 62.02 4.55 62.37 C 5.42 62.72 6.39 62.89 7.39 62.89 L 12.99 62.89 C 13.03 63.02 13.12 63.2 13.17 63.33 C 13.48 64.12 13.83 64.9 14.18 65.69 C 14.48 66.32 14.75 66.92 15.03 67.47 L 21.64 67.47 L 21.64 67.48 Z M 32.47 58.63 C 31.64 58.66 31 58.83 30.57 59.13 C 30.32 59.3 30.14 59.51 30.03 59.76 C 29.9 60.04 29.84 60.38 29.85 60.77 C 29.88 61.91 30.48 63.41 31.64 65.14 L 31.66 65.16 L 35.42 71.15 C 36.93 73.55 38.51 76 40.48 77.79 C 42.37 79.52 44.66 80.69 47.7 80.7 C 50.98 80.71 53.39 79.49 55.34 77.67 C 57.37 75.77 58.97 73.17 60.54 70.57 L 64.78 63.59 C 65.57 61.79 65.86 60.58 65.68 59.87 C 65.57 59.45 65.11 59.24 64.31 59.2 C 64.14 59.19 63.97 59.19 63.79 59.19 C 63.6 59.2 63.4 59.21 63.2 59.23 C 63.09 59.24 62.98 59.23 62.87 59.21 C 62.49 59.23 62.1 59.2 61.71 59.15 L 63.16 52.72 C 52.39 54.42 44.33 46.42 32.94 51.12 L 33.76 58.69 C 33.31 58.7 32.87 58.69 32.47 58.63 Z M 65.76 57.28 C 66.8 57.6 67.47 58.26 67.75 59.33 C 68.05 60.52 67.72 62.19 66.72 64.47 C 66.7 64.51 66.68 64.55 66.66 64.59 L 62.37 71.65 C 60.72 74.37 59.04 77.1 56.8 79.2 L 56.69 79.3 C 56.9 79.61 57.14 79.95 57.38 80.31 C 58.12 81.4 58.97 82.65 59.76 83.62 C 64.42 86.52 74.67 87.3 78.68 89.53 C 88.88 95.22 85.16 109.04 85.9 118.98 C 85.68 121.33 84.35 122.68 81.73 122.88 L 78.9 122.88 L 82.01 99.31 C 82.25 97.47 80.95 95.97 79.34 95.97 L 57.47 95.97 C 58.01 92.12 58.4 88.44 58.59 85.66 C 57.57 84.53 56.48 82.93 55.54 81.55 C 55.33 81.25 55.13 80.95 54.94 80.68 C 52.97 82 50.63 82.82 47.7 82.81 C 44.43 82.8 41.88 81.68 39.77 79.97 C 39.18 81.74 38.31 84.18 37.47 85.35 C 37.4 85.45 37.31 85.54 37.21 85.61 C 37.57 88.48 38.07 92.16 38.66 95.98 L 16.26 95.98 C 14.66 95.98 13.35 97.48 13.59 99.32 L 16.7 122.89 L 13.86 122.89 C 11.24 122.69 9.91 121.34 9.69 118.99 C 9.82 108.46 5.82 95.72 16.91 89.54 C 20.97 87.27 31.44 86.5 36.01 83.51 C 36.71 82.2 37.48 79.84 37.95 78.44 C 38 78.28 37.92 78.54 38 78.31 C 36.32 76.51 34.95 74.38 33.63 72.28 L 29.87 66.3 C 28.49 64.25 27.78 62.37 27.73 60.83 C 27.71 60.11 27.83 59.45 28.1 58.87 C 28.38 58.27 28.81 57.76 29.39 57.37 C 29.66 57.19 29.97 57.03 30.3 56.9 C 30.06 53.65 29.96 49.56 30.12 46.14 C 30.2 45.33 30.36 44.51 30.58 43.7 C 31.96 38.78 36.19 35.23 41.02 33.56 C 43.36 32.75 42.46 30.82 44.83 30.95 C 50.45 31.26 59.11 34.88 62.44 38.72 C 67.12 44.09 65.91 50.71 65.76 57.28 Z M 40.04 90.19 C 38.14 88.03 37.98 85.77 40.04 83.38 C 42.42 83.98 44.6 85.01 46.61 86.4 C 47.04 86.21 47.55 86.13 48.04 86.17 C 50.13 84.69 52.79 84.09 55.12 82.98 C 57.9 85.69 57.6 88.18 54.87 90.49 C 53.34 90.14 51.89 89.6 50.5 88.89 C 50.46 89.25 50.37 89.64 50.2 90.06 L 50.91 95.97 L 45.24 95.97 L 45.95 90.06 C 45.51 89.31 45.34 88.67 45.35 88.14 C 43.7 89.13 41.91 89.77 40.04 90.19 Z" style="clip-rule: evenodd; fill-rule: evenodd; fill: rgb(255, 255, 255);"/>
      </g>
    </g>
  </g>
</svg>